<mxfile modified="2023-05-09T14:56:41.677Z" host="app.diagrams.net" agent="Mozilla/5.0 (Macintosh; Intel Mac OS X 10.15; rv:109.0) Gecko/20100101 Firefox/112.0" etag="AFWIV77mBvSSUnJ5-wYe" version="21.2.9" type="github">
  <diagram id="Ht1M8jgEwFfnCIfOTk4-" name="Page-1">
    <mxGraphModel dx="1151" dy="1576" grid="1" gridSize="10" guides="1" tooltips="1" connect="1" arrows="1" fold="1" page="1" pageScale="1" pageWidth="1169" pageHeight="827" math="0" shadow="0">
      <root>
        <mxCell id="0" />
        <mxCell id="1" parent="0" />
        <mxCell id="zyt_HLSXAcN1QAIfmdFJ-72" value="" style="whiteSpace=wrap;html=1;aspect=fixed;" vertex="1" parent="1">
          <mxGeometry x="440" y="-800" width="230" height="230" as="geometry" />
        </mxCell>
        <mxCell id="zyt_HLSXAcN1QAIfmdFJ-70" value="" style="rounded=0;whiteSpace=wrap;html=1;" vertex="1" parent="1">
          <mxGeometry x="160" y="-505" width="120" height="245" as="geometry" />
        </mxCell>
        <mxCell id="zyt_HLSXAcN1QAIfmdFJ-67" value="" style="rounded=0;whiteSpace=wrap;html=1;" vertex="1" parent="1">
          <mxGeometry x="848" y="-512.5" width="120" height="245" as="geometry" />
        </mxCell>
        <mxCell id="zyt_HLSXAcN1QAIfmdFJ-9" value="&lt;div&gt;The Cloud -&amp;nbsp; Services making sense of the data. Data are open to be seen in the applications that make sense of them, store them and analyze them. &lt;br&gt;&lt;/div&gt;&lt;div&gt;&lt;br&gt;&lt;/div&gt;" style="points=[[0,0],[0.25,0],[0.5,0],[0.75,0],[1,0],[1,0.25],[1,0.5],[1,0.75],[1,1],[0.75,1],[0.5,1],[0.25,1],[0,1],[0,0.75],[0,0.5],[0,0.25]];outlineConnect=0;gradientColor=none;html=1;whiteSpace=wrap;fontSize=12;fontStyle=0;container=1;pointerEvents=0;collapsible=0;recursiveResize=0;shape=mxgraph.aws4.group;grIcon=mxgraph.aws4.group_aws_cloud;strokeColor=#232F3E;fillColor=none;verticalAlign=top;align=left;spacingLeft=30;fontColor=#232F3E;dashed=0;" vertex="1" parent="1">
          <mxGeometry x="350" y="-480" width="420" height="180" as="geometry" />
        </mxCell>
        <mxCell id="zyt_HLSXAcN1QAIfmdFJ-13" value="" style="sketch=0;outlineConnect=0;fontColor=#232F3E;gradientColor=none;fillColor=#3F8624;strokeColor=none;dashed=0;verticalLabelPosition=bottom;verticalAlign=top;align=center;html=1;fontSize=12;fontStyle=0;aspect=fixed;pointerEvents=1;shape=mxgraph.aws4.iot_analytics_data_store;" vertex="1" parent="zyt_HLSXAcN1QAIfmdFJ-9">
          <mxGeometry x="10" y="60" width="54" height="78" as="geometry" />
        </mxCell>
        <mxCell id="zyt_HLSXAcN1QAIfmdFJ-47" value="" style="sketch=0;outlineConnect=0;fontColor=#232F3E;gradientColor=none;fillColor=#3F8624;strokeColor=none;dashed=0;verticalLabelPosition=bottom;verticalAlign=top;align=center;html=1;fontSize=12;fontStyle=0;aspect=fixed;pointerEvents=1;shape=mxgraph.aws4.lambda_function;" vertex="1" parent="zyt_HLSXAcN1QAIfmdFJ-9">
          <mxGeometry x="80" y="60" width="78" height="78" as="geometry" />
        </mxCell>
        <mxCell id="zyt_HLSXAcN1QAIfmdFJ-48" value="" style="sketch=0;outlineConnect=0;fontColor=#232F3E;gradientColor=none;fillColor=#3F8624;strokeColor=none;dashed=0;verticalLabelPosition=bottom;verticalAlign=top;align=center;html=1;fontSize=12;fontStyle=0;aspect=fixed;pointerEvents=1;shape=mxgraph.aws4.iot_core_device_location;" vertex="1" parent="zyt_HLSXAcN1QAIfmdFJ-9">
          <mxGeometry x="158" y="60" width="78" height="78" as="geometry" />
        </mxCell>
        <mxCell id="zyt_HLSXAcN1QAIfmdFJ-49" value="" style="sketch=0;outlineConnect=0;fontColor=#232F3E;gradientColor=none;fillColor=#3F8624;strokeColor=none;dashed=0;verticalLabelPosition=bottom;verticalAlign=top;align=center;html=1;fontSize=12;fontStyle=0;aspect=fixed;pointerEvents=1;shape=mxgraph.aws4.iot_core_device_advisor;" vertex="1" parent="zyt_HLSXAcN1QAIfmdFJ-9">
          <mxGeometry x="236" y="60" width="77" height="78" as="geometry" />
        </mxCell>
        <mxCell id="zyt_HLSXAcN1QAIfmdFJ-51" value="" style="sketch=0;outlineConnect=0;fontColor=#232F3E;gradientColor=none;fillColor=#3F8624;strokeColor=none;dashed=0;verticalLabelPosition=bottom;verticalAlign=top;align=center;html=1;fontSize=12;fontStyle=0;aspect=fixed;pointerEvents=1;shape=mxgraph.aws4.connector;" vertex="1" parent="zyt_HLSXAcN1QAIfmdFJ-9">
          <mxGeometry x="320" y="85" width="78" height="29" as="geometry" />
        </mxCell>
        <mxCell id="zyt_HLSXAcN1QAIfmdFJ-71" value="Third party providers." style="text;html=1;strokeColor=none;fillColor=none;align=center;verticalAlign=middle;whiteSpace=wrap;rounded=0;" vertex="1" parent="zyt_HLSXAcN1QAIfmdFJ-9">
          <mxGeometry x="120" y="150" width="150" height="30" as="geometry" />
        </mxCell>
        <mxCell id="zyt_HLSXAcN1QAIfmdFJ-20" value="" style="sketch=0;outlineConnect=0;fontColor=#232F3E;gradientColor=none;fillColor=#3F8624;strokeColor=none;dashed=0;verticalLabelPosition=bottom;verticalAlign=top;align=center;html=1;fontSize=12;fontStyle=0;aspect=fixed;pointerEvents=1;shape=mxgraph.aws4.bank;" vertex="1" parent="1">
          <mxGeometry x="510" y="-660" width="78" height="78" as="geometry" />
        </mxCell>
        <mxCell id="zyt_HLSXAcN1QAIfmdFJ-22" value="" style="sketch=0;outlineConnect=0;fontColor=#232F3E;gradientColor=none;fillColor=#3F8624;strokeColor=none;dashed=0;verticalLabelPosition=bottom;verticalAlign=top;align=center;html=1;fontSize=12;fontStyle=0;aspect=fixed;pointerEvents=1;shape=mxgraph.aws4.house;" vertex="1" parent="1">
          <mxGeometry x="180" y="-429" width="78" height="78" as="geometry" />
        </mxCell>
        <mxCell id="zyt_HLSXAcN1QAIfmdFJ-17" value="" style="sketch=0;outlineConnect=0;fontColor=#232F3E;gradientColor=none;fillColor=#3F8624;strokeColor=none;dashed=0;verticalLabelPosition=bottom;verticalAlign=top;align=center;html=1;fontSize=12;fontStyle=0;aspect=fixed;pointerEvents=1;shape=mxgraph.aws4.car;" vertex="1" parent="1">
          <mxGeometry x="860" y="-428" width="78" height="78" as="geometry" />
        </mxCell>
        <mxCell id="zyt_HLSXAcN1QAIfmdFJ-30" value="" style="sketch=0;outlineConnect=0;fontColor=#232F3E;gradientColor=none;fillColor=#3F8624;strokeColor=none;dashed=0;verticalLabelPosition=bottom;verticalAlign=top;align=center;html=1;fontSize=12;fontStyle=0;aspect=fixed;pointerEvents=1;shape=mxgraph.aws4.certificate_manager;" vertex="1" parent="1">
          <mxGeometry x="650" y="-200" width="59" height="78" as="geometry" />
        </mxCell>
        <mxCell id="zyt_HLSXAcN1QAIfmdFJ-37" value="" style="whiteSpace=wrap;html=1;aspect=fixed;" vertex="1" parent="1">
          <mxGeometry x="320" y="-221" width="171" height="171" as="geometry" />
        </mxCell>
        <mxCell id="zyt_HLSXAcN1QAIfmdFJ-35" value="" style="sketch=0;outlineConnect=0;fontColor=#232F3E;gradientColor=none;fillColor=#D45B07;strokeColor=none;dashed=0;verticalLabelPosition=bottom;verticalAlign=top;align=center;html=1;fontSize=12;fontStyle=0;aspect=fixed;shape=mxgraph.aws4.blockchain_resource;" vertex="1" parent="1">
          <mxGeometry x="362" y="-140" width="78" height="23" as="geometry" />
        </mxCell>
        <mxCell id="zyt_HLSXAcN1QAIfmdFJ-36" value="" style="sketch=0;outlineConnect=0;fontColor=#232F3E;gradientColor=none;fillColor=#D45B07;strokeColor=none;dashed=0;verticalLabelPosition=bottom;verticalAlign=top;align=center;html=1;fontSize=12;fontStyle=0;aspect=fixed;pointerEvents=1;shape=mxgraph.aws4.db_on_instance2;" vertex="1" parent="1">
          <mxGeometry x="377" y="-211" width="80" height="80" as="geometry" />
        </mxCell>
        <mxCell id="zyt_HLSXAcN1QAIfmdFJ-43" value="" style="endArrow=classic;startArrow=classic;html=1;rounded=0;" edge="1" parent="1" source="zyt_HLSXAcN1QAIfmdFJ-30">
          <mxGeometry width="50" height="50" relative="1" as="geometry">
            <mxPoint x="669" y="-400" as="sourcePoint" />
            <mxPoint x="679.1965065502184" y="-300" as="targetPoint" />
          </mxGeometry>
        </mxCell>
        <mxCell id="zyt_HLSXAcN1QAIfmdFJ-46" value="" style="endArrow=classic;startArrow=classic;html=1;rounded=0;entryX=0.5;entryY=0;entryDx=0;entryDy=0;" edge="1" parent="1" source="zyt_HLSXAcN1QAIfmdFJ-9" target="zyt_HLSXAcN1QAIfmdFJ-37">
          <mxGeometry width="50" height="50" relative="1" as="geometry">
            <mxPoint x="430" y="-290" as="sourcePoint" />
            <mxPoint x="600" y="-450" as="targetPoint" />
          </mxGeometry>
        </mxCell>
        <mxCell id="zyt_HLSXAcN1QAIfmdFJ-52" value="Encrypted tunnel." style="text;html=1;strokeColor=none;fillColor=none;align=center;verticalAlign=middle;whiteSpace=wrap;rounded=0;" vertex="1" parent="1">
          <mxGeometry x="450" y="-270" width="60" height="30" as="geometry" />
        </mxCell>
        <mxCell id="zyt_HLSXAcN1QAIfmdFJ-53" value="Encrypted tunnel." style="text;html=1;strokeColor=none;fillColor=none;align=center;verticalAlign=middle;whiteSpace=wrap;rounded=0;" vertex="1" parent="1">
          <mxGeometry x="680" y="-260" width="60" height="30" as="geometry" />
        </mxCell>
        <mxCell id="zyt_HLSXAcN1QAIfmdFJ-54" value="Encrypted tunnel." style="text;html=1;strokeColor=none;fillColor=none;align=center;verticalAlign=middle;whiteSpace=wrap;rounded=0;" vertex="1" parent="1">
          <mxGeometry x="790" y="-428" width="60" height="30" as="geometry" />
        </mxCell>
        <mxCell id="zyt_HLSXAcN1QAIfmdFJ-55" value="" style="endArrow=classic;startArrow=classic;html=1;rounded=0;" edge="1" parent="1" source="zyt_HLSXAcN1QAIfmdFJ-9" target="zyt_HLSXAcN1QAIfmdFJ-17">
          <mxGeometry width="50" height="50" relative="1" as="geometry">
            <mxPoint x="689" y="-189" as="sourcePoint" />
            <mxPoint x="820" y="-450" as="targetPoint" />
          </mxGeometry>
        </mxCell>
        <mxCell id="zyt_HLSXAcN1QAIfmdFJ-57" value="" style="endArrow=classic;startArrow=classic;html=1;rounded=0;" edge="1" parent="1">
          <mxGeometry width="50" height="50" relative="1" as="geometry">
            <mxPoint x="260" y="-390.5" as="sourcePoint" />
            <mxPoint x="350" y="-390.5" as="targetPoint" />
          </mxGeometry>
        </mxCell>
        <mxCell id="zyt_HLSXAcN1QAIfmdFJ-58" value="Encrypted tunnel." style="text;html=1;strokeColor=none;fillColor=none;align=center;verticalAlign=middle;whiteSpace=wrap;rounded=0;" vertex="1" parent="1">
          <mxGeometry x="280" y="-420" width="60" height="30" as="geometry" />
        </mxCell>
        <mxCell id="zyt_HLSXAcN1QAIfmdFJ-59" value="" style="endArrow=classic;startArrow=classic;html=1;rounded=0;" edge="1" parent="1">
          <mxGeometry width="50" height="50" relative="1" as="geometry">
            <mxPoint x="550" y="-480" as="sourcePoint" />
            <mxPoint x="550.1965065502184" y="-581" as="targetPoint" />
          </mxGeometry>
        </mxCell>
        <mxCell id="zyt_HLSXAcN1QAIfmdFJ-60" value="Encrypted tunnel." style="text;html=1;strokeColor=none;fillColor=none;align=center;verticalAlign=middle;whiteSpace=wrap;rounded=0;" vertex="1" parent="1">
          <mxGeometry x="555" y="-550" width="60" height="30" as="geometry" />
        </mxCell>
        <mxCell id="zyt_HLSXAcN1QAIfmdFJ-61" value="Transaction &lt;br&gt;&lt;div&gt;Issuer and receiver&lt;/div&gt;" style="text;html=1;strokeColor=none;fillColor=none;align=center;verticalAlign=middle;whiteSpace=wrap;rounded=0;" vertex="1" parent="1">
          <mxGeometry x="710" y="-186" width="60" height="30" as="geometry" />
        </mxCell>
        <mxCell id="zyt_HLSXAcN1QAIfmdFJ-62" value="&lt;div&gt;IoT device &lt;br&gt;&lt;/div&gt;&lt;div&gt;receiver and issuer&lt;/div&gt;" style="text;html=1;strokeColor=none;fillColor=none;align=center;verticalAlign=middle;whiteSpace=wrap;rounded=0;" vertex="1" parent="1">
          <mxGeometry x="869" y="-340" width="60" height="30" as="geometry" />
        </mxCell>
        <mxCell id="zyt_HLSXAcN1QAIfmdFJ-65" value="&lt;div&gt;IoT device &lt;br&gt;&lt;/div&gt;&lt;div&gt;receiver and issuer&lt;/div&gt;" style="text;html=1;strokeColor=none;fillColor=none;align=center;verticalAlign=middle;whiteSpace=wrap;rounded=0;" vertex="1" parent="1">
          <mxGeometry x="189" y="-340" width="60" height="30" as="geometry" />
        </mxCell>
        <mxCell id="zyt_HLSXAcN1QAIfmdFJ-66" value="&lt;div&gt;IoT service &lt;br&gt;&lt;/div&gt;&lt;div&gt;provider &lt;br&gt;&lt;/div&gt;&lt;div&gt;receiver and issuer&lt;/div&gt;" style="text;html=1;strokeColor=none;fillColor=none;align=center;verticalAlign=middle;whiteSpace=wrap;rounded=0;" vertex="1" parent="1">
          <mxGeometry x="519" y="-720" width="60" height="30" as="geometry" />
        </mxCell>
        <mxCell id="zyt_HLSXAcN1QAIfmdFJ-68" value="Provided by Smart Home" style="text;html=1;strokeColor=none;fillColor=none;align=center;verticalAlign=middle;whiteSpace=wrap;rounded=0;" vertex="1" parent="1">
          <mxGeometry x="189" y="-490" width="60" height="30" as="geometry" />
        </mxCell>
        <mxCell id="zyt_HLSXAcN1QAIfmdFJ-69" value="Provided by Volvo" style="text;html=1;strokeColor=none;fillColor=none;align=center;verticalAlign=middle;whiteSpace=wrap;rounded=0;" vertex="1" parent="1">
          <mxGeometry x="878" y="-480" width="60" height="30" as="geometry" />
        </mxCell>
        <mxCell id="zyt_HLSXAcN1QAIfmdFJ-73" value="Provided by Google" style="text;html=1;strokeColor=none;fillColor=none;align=center;verticalAlign=middle;whiteSpace=wrap;rounded=0;" vertex="1" parent="1">
          <mxGeometry x="519" y="-800" width="60" height="30" as="geometry" />
        </mxCell>
        <mxCell id="zyt_HLSXAcN1QAIfmdFJ-74" value="The Computantis " style="text;html=1;strokeColor=none;fillColor=none;align=center;verticalAlign=middle;whiteSpace=wrap;rounded=0;" vertex="1" parent="1">
          <mxGeometry x="377" y="-100" width="60" height="30" as="geometry" />
        </mxCell>
      </root>
    </mxGraphModel>
  </diagram>
</mxfile>
